<?xml version="1.0" encoding="UTF-8" standalone="no"?>
<!DOCTYPE svg PUBLIC "-//W3C//DTD SVG 1.1//EN"
 "http://www.w3.org/Graphics/SVG/1.1/DTD/svg11.dtd">
<!-- Generated by graphviz version 2.36.0 (20140111.2315)
 -->
<!-- Title: G Pages: 1 -->
<svg width="448pt" height="476pt"
 viewBox="0.00 0.00 448.00 476.00" xmlns="http://www.w3.org/2000/svg" xmlns:xlink="http://www.w3.org/1999/xlink">
<g id="graph0" class="graph" transform="scale(1 1) rotate(0) translate(4 472)">
<title>G</title>
<polygon fill="white" stroke="none" points="-4,4 -4,-472 444,-472 444,4 -4,4"/>
<!-- 140259640380888 -->
<g id="node1" class="node"><title>140259640380888</title>
<polygon fill="none" stroke="black" points="90,-421 90,-467 350,-467 350,-421 90,-421"/>
<text text-anchor="middle" x="153.5" y="-440.3" font-family="Times,serif" font-size="14.00">input_2: InputLayer</text>
<polyline fill="none" stroke="black" points="217,-421 217,-467 "/>
<text text-anchor="middle" x="245" y="-451.8" font-family="Times,serif" font-size="14.00">input:</text>
<polyline fill="none" stroke="black" points="217,-444 273,-444 "/>
<text text-anchor="middle" x="245" y="-428.8" font-family="Times,serif" font-size="14.00">output:</text>
<polyline fill="none" stroke="black" points="273,-421 273,-467 "/>
<text text-anchor="middle" x="311.5" y="-451.8" font-family="Times,serif" font-size="14.00">(None, 10)</text>
<polyline fill="none" stroke="black" points="273,-444 350,-444 "/>
<text text-anchor="middle" x="311.5" y="-428.8" font-family="Times,serif" font-size="14.00">(None, 10)</text>
</g>
<!-- 140259640386504 -->
<g id="node2" class="node"><title>140259640386504</title>
<polygon fill="none" stroke="black" points="46,-337 46,-383 394,-383 394,-337 46,-337"/>
<text text-anchor="middle" x="140.5" y="-356.3" font-family="Times,serif" font-size="14.00">repeat_vector_1: RepeatVector</text>
<polyline fill="none" stroke="black" points="235,-337 235,-383 "/>
<text text-anchor="middle" x="263" y="-367.8" font-family="Times,serif" font-size="14.00">input:</text>
<polyline fill="none" stroke="black" points="235,-360 291,-360 "/>
<text text-anchor="middle" x="263" y="-344.8" font-family="Times,serif" font-size="14.00">output:</text>
<polyline fill="none" stroke="black" points="291,-337 291,-383 "/>
<text text-anchor="middle" x="342.5" y="-367.8" font-family="Times,serif" font-size="14.00">(None, 10)</text>
<polyline fill="none" stroke="black" points="291,-360 394,-360 "/>
<text text-anchor="middle" x="342.5" y="-344.8" font-family="Times,serif" font-size="14.00">(None, 149, 10)</text>
</g>
<!-- 140259640380888&#45;&gt;140259640386504 -->
<g id="edge1" class="edge"><title>140259640380888&#45;&gt;140259640386504</title>
<path fill="none" stroke="black" d="M220,-420.593C220,-412.118 220,-402.297 220,-393.104"/>
<polygon fill="black" stroke="black" points="223.5,-393.096 220,-383.096 216.5,-393.096 223.5,-393.096"/>
</g>
<!-- 140259640314568 -->
<g id="node3" class="node"><title>140259640314568</title>
<polygon fill="none" stroke="black" points="-0.5,-253 -0.5,-299 440.5,-299 440.5,-253 -0.5,-253"/>
<text text-anchor="middle" x="137" y="-272.3" font-family="Times,serif" font-size="14.00">bidirectional_3(lstm_3): Bidirectional(LSTM)</text>
<polyline fill="none" stroke="black" points="274.5,-253 274.5,-299 "/>
<text text-anchor="middle" x="302.5" y="-283.8" font-family="Times,serif" font-size="14.00">input:</text>
<polyline fill="none" stroke="black" points="274.5,-276 330.5,-276 "/>
<text text-anchor="middle" x="302.5" y="-260.8" font-family="Times,serif" font-size="14.00">output:</text>
<polyline fill="none" stroke="black" points="330.5,-253 330.5,-299 "/>
<text text-anchor="middle" x="385.5" y="-283.8" font-family="Times,serif" font-size="14.00">(None, 149, 10)</text>
<polyline fill="none" stroke="black" points="330.5,-276 440.5,-276 "/>
<text text-anchor="middle" x="385.5" y="-260.8" font-family="Times,serif" font-size="14.00">(None, 149, 298)</text>
</g>
<!-- 140259640386504&#45;&gt;140259640314568 -->
<g id="edge2" class="edge"><title>140259640386504&#45;&gt;140259640314568</title>
<path fill="none" stroke="black" d="M220,-336.593C220,-328.118 220,-318.297 220,-309.104"/>
<polygon fill="black" stroke="black" points="223.5,-309.096 220,-299.096 216.5,-309.096 223.5,-309.096"/>
</g>
<!-- 140259640380216 -->
<g id="node4" class="node"><title>140259640380216</title>
<polygon fill="none" stroke="black" points="-0.5,-169 -0.5,-215 440.5,-215 440.5,-169 -0.5,-169"/>
<text text-anchor="middle" x="137" y="-188.3" font-family="Times,serif" font-size="14.00">bidirectional_4(lstm_4): Bidirectional(LSTM)</text>
<polyline fill="none" stroke="black" points="274.5,-169 274.5,-215 "/>
<text text-anchor="middle" x="302.5" y="-199.8" font-family="Times,serif" font-size="14.00">input:</text>
<polyline fill="none" stroke="black" points="274.5,-192 330.5,-192 "/>
<text text-anchor="middle" x="302.5" y="-176.8" font-family="Times,serif" font-size="14.00">output:</text>
<polyline fill="none" stroke="black" points="330.5,-169 330.5,-215 "/>
<text text-anchor="middle" x="385.5" y="-199.8" font-family="Times,serif" font-size="14.00">(None, 149, 298)</text>
<polyline fill="none" stroke="black" points="330.5,-192 440.5,-192 "/>
<text text-anchor="middle" x="385.5" y="-176.8" font-family="Times,serif" font-size="14.00">(None, 298)</text>
</g>
<!-- 140259640314568&#45;&gt;140259640380216 -->
<g id="edge3" class="edge"><title>140259640314568&#45;&gt;140259640380216</title>
<path fill="none" stroke="black" d="M220,-252.593C220,-244.118 220,-234.297 220,-225.104"/>
<polygon fill="black" stroke="black" points="223.5,-225.096 220,-215.096 216.5,-225.096 223.5,-225.096"/>
</g>
<!-- 140259666698312 -->
<g id="node5" class="node"><title>140259666698312</title>
<polygon fill="none" stroke="black" points="96,-85 96,-131 344,-131 344,-85 96,-85"/>
<text text-anchor="middle" x="147" y="-104.3" font-family="Times,serif" font-size="14.00">dense_3: Dense</text>
<polyline fill="none" stroke="black" points="198,-85 198,-131 "/>
<text text-anchor="middle" x="226" y="-115.8" font-family="Times,serif" font-size="14.00">input:</text>
<polyline fill="none" stroke="black" points="198,-108 254,-108 "/>
<text text-anchor="middle" x="226" y="-92.8" font-family="Times,serif" font-size="14.00">output:</text>
<polyline fill="none" stroke="black" points="254,-85 254,-131 "/>
<text text-anchor="middle" x="299" y="-115.8" font-family="Times,serif" font-size="14.00">(None, 298)</text>
<polyline fill="none" stroke="black" points="254,-108 344,-108 "/>
<text text-anchor="middle" x="299" y="-92.8" font-family="Times,serif" font-size="14.00">(None, 3129)</text>
</g>
<!-- 140259640380216&#45;&gt;140259666698312 -->
<g id="edge4" class="edge"><title>140259640380216&#45;&gt;140259666698312</title>
<path fill="none" stroke="black" d="M220,-168.593C220,-160.118 220,-150.297 220,-141.104"/>
<polygon fill="black" stroke="black" points="223.5,-141.096 220,-131.096 216.5,-141.096 223.5,-141.096"/>
</g>
<!-- 140259666699600 -->
<g id="node6" class="node"><title>140259666699600</title>
<polygon fill="none" stroke="black" points="78,-1 78,-47 362,-47 362,-1 78,-1"/>
<text text-anchor="middle" x="140.5" y="-20.3" font-family="Times,serif" font-size="14.00">reshape_1: Reshape</text>
<polyline fill="none" stroke="black" points="203,-1 203,-47 "/>
<text text-anchor="middle" x="231" y="-31.8" font-family="Times,serif" font-size="14.00">input:</text>
<polyline fill="none" stroke="black" points="203,-24 259,-24 "/>
<text text-anchor="middle" x="231" y="-8.8" font-family="Times,serif" font-size="14.00">output:</text>
<polyline fill="none" stroke="black" points="259,-1 259,-47 "/>
<text text-anchor="middle" x="310.5" y="-31.8" font-family="Times,serif" font-size="14.00">(None, 3129)</text>
<polyline fill="none" stroke="black" points="259,-24 362,-24 "/>
<text text-anchor="middle" x="310.5" y="-8.8" font-family="Times,serif" font-size="14.00">(None, 149, 21)</text>
</g>
<!-- 140259666698312&#45;&gt;140259666699600 -->
<g id="edge5" class="edge"><title>140259666698312&#45;&gt;140259666699600</title>
<path fill="none" stroke="black" d="M220,-84.5931C220,-76.1177 220,-66.2974 220,-57.104"/>
<polygon fill="black" stroke="black" points="223.5,-57.0958 220,-47.0959 216.5,-57.0959 223.5,-57.0958"/>
</g>
</g>
</svg>
