<?xml version="1.0" encoding="UTF-8" standalone="no"?>
<!DOCTYPE svg PUBLIC "-//W3C//DTD SVG 1.1//EN"
 "http://www.w3.org/Graphics/SVG/1.1/DTD/svg11.dtd">
<!-- Generated by graphviz version 2.36.0 (20140111.2315)
 -->
<!-- Title: G Pages: 1 -->
<svg width="462pt" height="476pt"
 viewBox="0.00 0.00 462.00 476.00" xmlns="http://www.w3.org/2000/svg" xmlns:xlink="http://www.w3.org/1999/xlink">
<g id="graph0" class="graph" transform="scale(1 1) rotate(0) translate(4 472)">
<title>G</title>
<polygon fill="white" stroke="none" points="-4,4 -4,-472 458,-472 458,4 -4,4"/>
<!-- 140486182631296 -->
<g id="node1" class="node"><title>140486182631296</title>
<polygon fill="none" stroke="black" points="97,-421 97,-467 357,-467 357,-421 97,-421"/>
<text text-anchor="middle" x="160.5" y="-440.3" font-family="Times,serif" font-size="14.00">input_7: InputLayer</text>
<polyline fill="none" stroke="black" points="224,-421 224,-467 "/>
<text text-anchor="middle" x="252" y="-451.8" font-family="Times,serif" font-size="14.00">input:</text>
<polyline fill="none" stroke="black" points="224,-444 280,-444 "/>
<text text-anchor="middle" x="252" y="-428.8" font-family="Times,serif" font-size="14.00">output:</text>
<polyline fill="none" stroke="black" points="280,-421 280,-467 "/>
<text text-anchor="middle" x="318.5" y="-451.8" font-family="Times,serif" font-size="14.00">(None, 10)</text>
<polyline fill="none" stroke="black" points="280,-444 357,-444 "/>
<text text-anchor="middle" x="318.5" y="-428.8" font-family="Times,serif" font-size="14.00">(None, 10)</text>
</g>
<!-- 140486182642072 -->
<g id="node2" class="node"><title>140486182642072</title>
<polygon fill="none" stroke="black" points="53,-337 53,-383 401,-383 401,-337 53,-337"/>
<text text-anchor="middle" x="147.5" y="-356.3" font-family="Times,serif" font-size="14.00">repeat_vector_3: RepeatVector</text>
<polyline fill="none" stroke="black" points="242,-337 242,-383 "/>
<text text-anchor="middle" x="270" y="-367.8" font-family="Times,serif" font-size="14.00">input:</text>
<polyline fill="none" stroke="black" points="242,-360 298,-360 "/>
<text text-anchor="middle" x="270" y="-344.8" font-family="Times,serif" font-size="14.00">output:</text>
<polyline fill="none" stroke="black" points="298,-337 298,-383 "/>
<text text-anchor="middle" x="349.5" y="-367.8" font-family="Times,serif" font-size="14.00">(None, 10)</text>
<polyline fill="none" stroke="black" points="298,-360 401,-360 "/>
<text text-anchor="middle" x="349.5" y="-344.8" font-family="Times,serif" font-size="14.00">(None, 149, 10)</text>
</g>
<!-- 140486182631296&#45;&gt;140486182642072 -->
<g id="edge1" class="edge"><title>140486182631296&#45;&gt;140486182642072</title>
<path fill="none" stroke="black" d="M227,-420.593C227,-412.118 227,-402.297 227,-393.104"/>
<polygon fill="black" stroke="black" points="230.5,-393.096 227,-383.096 223.5,-393.096 230.5,-393.096"/>
</g>
<!-- 140486182633312 -->
<g id="node3" class="node"><title>140486182633312</title>
<polygon fill="none" stroke="black" points="-0.5,-253 -0.5,-299 454.5,-299 454.5,-253 -0.5,-253"/>
<text text-anchor="middle" x="144" y="-272.3" font-family="Times,serif" font-size="14.00">bidirectional_15(lstm_15): Bidirectional(LSTM)</text>
<polyline fill="none" stroke="black" points="288.5,-253 288.5,-299 "/>
<text text-anchor="middle" x="316.5" y="-283.8" font-family="Times,serif" font-size="14.00">input:</text>
<polyline fill="none" stroke="black" points="288.5,-276 344.5,-276 "/>
<text text-anchor="middle" x="316.5" y="-260.8" font-family="Times,serif" font-size="14.00">output:</text>
<polyline fill="none" stroke="black" points="344.5,-253 344.5,-299 "/>
<text text-anchor="middle" x="399.5" y="-283.8" font-family="Times,serif" font-size="14.00">(None, 149, 10)</text>
<polyline fill="none" stroke="black" points="344.5,-276 454.5,-276 "/>
<text text-anchor="middle" x="399.5" y="-260.8" font-family="Times,serif" font-size="14.00">(None, 149, 298)</text>
</g>
<!-- 140486182642072&#45;&gt;140486182633312 -->
<g id="edge2" class="edge"><title>140486182642072&#45;&gt;140486182633312</title>
<path fill="none" stroke="black" d="M227,-336.593C227,-328.118 227,-318.297 227,-309.104"/>
<polygon fill="black" stroke="black" points="230.5,-309.096 227,-299.096 223.5,-309.096 230.5,-309.096"/>
</g>
<!-- 140486182632136 -->
<g id="node4" class="node"><title>140486182632136</title>
<polygon fill="none" stroke="black" points="-0.5,-169 -0.5,-215 454.5,-215 454.5,-169 -0.5,-169"/>
<text text-anchor="middle" x="144" y="-188.3" font-family="Times,serif" font-size="14.00">bidirectional_16(lstm_16): Bidirectional(LSTM)</text>
<polyline fill="none" stroke="black" points="288.5,-169 288.5,-215 "/>
<text text-anchor="middle" x="316.5" y="-199.8" font-family="Times,serif" font-size="14.00">input:</text>
<polyline fill="none" stroke="black" points="288.5,-192 344.5,-192 "/>
<text text-anchor="middle" x="316.5" y="-176.8" font-family="Times,serif" font-size="14.00">output:</text>
<polyline fill="none" stroke="black" points="344.5,-169 344.5,-215 "/>
<text text-anchor="middle" x="399.5" y="-199.8" font-family="Times,serif" font-size="14.00">(None, 149, 298)</text>
<polyline fill="none" stroke="black" points="344.5,-192 454.5,-192 "/>
<text text-anchor="middle" x="399.5" y="-176.8" font-family="Times,serif" font-size="14.00">(None, 298)</text>
</g>
<!-- 140486182633312&#45;&gt;140486182632136 -->
<g id="edge3" class="edge"><title>140486182633312&#45;&gt;140486182632136</title>
<path fill="none" stroke="black" d="M227,-252.593C227,-244.118 227,-234.297 227,-225.104"/>
<polygon fill="black" stroke="black" points="230.5,-225.096 227,-215.096 223.5,-225.096 230.5,-225.096"/>
</g>
<!-- 140486182632640 -->
<g id="node5" class="node"><title>140486182632640</title>
<polygon fill="none" stroke="black" points="99.5,-85 99.5,-131 354.5,-131 354.5,-85 99.5,-85"/>
<text text-anchor="middle" x="154" y="-104.3" font-family="Times,serif" font-size="14.00">dense_13: Dense</text>
<polyline fill="none" stroke="black" points="208.5,-85 208.5,-131 "/>
<text text-anchor="middle" x="236.5" y="-115.8" font-family="Times,serif" font-size="14.00">input:</text>
<polyline fill="none" stroke="black" points="208.5,-108 264.5,-108 "/>
<text text-anchor="middle" x="236.5" y="-92.8" font-family="Times,serif" font-size="14.00">output:</text>
<polyline fill="none" stroke="black" points="264.5,-85 264.5,-131 "/>
<text text-anchor="middle" x="309.5" y="-115.8" font-family="Times,serif" font-size="14.00">(None, 298)</text>
<polyline fill="none" stroke="black" points="264.5,-108 354.5,-108 "/>
<text text-anchor="middle" x="309.5" y="-92.8" font-family="Times,serif" font-size="14.00">(None, 3129)</text>
</g>
<!-- 140486182632136&#45;&gt;140486182632640 -->
<g id="edge4" class="edge"><title>140486182632136&#45;&gt;140486182632640</title>
<path fill="none" stroke="black" d="M227,-168.593C227,-160.118 227,-150.297 227,-141.104"/>
<polygon fill="black" stroke="black" points="230.5,-141.096 227,-131.096 223.5,-141.096 230.5,-141.096"/>
</g>
<!-- 140486182631240 -->
<g id="node6" class="node"><title>140486182631240</title>
<polygon fill="none" stroke="black" points="85,-1 85,-47 369,-47 369,-1 85,-1"/>
<text text-anchor="middle" x="147.5" y="-20.3" font-family="Times,serif" font-size="14.00">reshape_2: Reshape</text>
<polyline fill="none" stroke="black" points="210,-1 210,-47 "/>
<text text-anchor="middle" x="238" y="-31.8" font-family="Times,serif" font-size="14.00">input:</text>
<polyline fill="none" stroke="black" points="210,-24 266,-24 "/>
<text text-anchor="middle" x="238" y="-8.8" font-family="Times,serif" font-size="14.00">output:</text>
<polyline fill="none" stroke="black" points="266,-1 266,-47 "/>
<text text-anchor="middle" x="317.5" y="-31.8" font-family="Times,serif" font-size="14.00">(None, 3129)</text>
<polyline fill="none" stroke="black" points="266,-24 369,-24 "/>
<text text-anchor="middle" x="317.5" y="-8.8" font-family="Times,serif" font-size="14.00">(None, 149, 21)</text>
</g>
<!-- 140486182632640&#45;&gt;140486182631240 -->
<g id="edge5" class="edge"><title>140486182632640&#45;&gt;140486182631240</title>
<path fill="none" stroke="black" d="M227,-84.5931C227,-76.1177 227,-66.2974 227,-57.104"/>
<polygon fill="black" stroke="black" points="230.5,-57.0958 227,-47.0959 223.5,-57.0959 230.5,-57.0958"/>
</g>
</g>
</svg>
