<?xml version="1.0" encoding="UTF-8" standalone="no"?>
<!DOCTYPE svg PUBLIC "-//W3C//DTD SVG 1.1//EN"
 "http://www.w3.org/Graphics/SVG/1.1/DTD/svg11.dtd">
<!-- Generated by graphviz version 2.36.0 (20140111.2315)
 -->
<!-- Title: G Pages: 1 -->
<svg width="462pt" height="308pt"
 viewBox="0.00 0.00 462.00 308.00" xmlns="http://www.w3.org/2000/svg" xmlns:xlink="http://www.w3.org/1999/xlink">
<g id="graph0" class="graph" transform="scale(1 1) rotate(0) translate(4 304)">
<title>G</title>
<polygon fill="white" stroke="none" points="-4,4 -4,-304 458,-304 458,4 -4,4"/>
<!-- 140486067006320 -->
<g id="node1" class="node"><title>140486067006320</title>
<polygon fill="none" stroke="black" points="84,-253 84,-299 370,-299 370,-253 84,-253"/>
<text text-anchor="middle" x="147.5" y="-272.3" font-family="Times,serif" font-size="14.00">input_5: InputLayer</text>
<polyline fill="none" stroke="black" points="211,-253 211,-299 "/>
<text text-anchor="middle" x="239" y="-283.8" font-family="Times,serif" font-size="14.00">input:</text>
<polyline fill="none" stroke="black" points="211,-276 267,-276 "/>
<text text-anchor="middle" x="239" y="-260.8" font-family="Times,serif" font-size="14.00">output:</text>
<polyline fill="none" stroke="black" points="267,-253 267,-299 "/>
<text text-anchor="middle" x="318.5" y="-283.8" font-family="Times,serif" font-size="14.00">(None, 149, 21)</text>
<polyline fill="none" stroke="black" points="267,-276 370,-276 "/>
<text text-anchor="middle" x="318.5" y="-260.8" font-family="Times,serif" font-size="14.00">(None, 149, 21)</text>
</g>
<!-- 140486183341192 -->
<g id="node2" class="node"><title>140486183341192</title>
<polygon fill="none" stroke="black" points="6.5,-169 6.5,-215 447.5,-215 447.5,-169 6.5,-169"/>
<text text-anchor="middle" x="144" y="-188.3" font-family="Times,serif" font-size="14.00">bidirectional_9(lstm_9): Bidirectional(LSTM)</text>
<polyline fill="none" stroke="black" points="281.5,-169 281.5,-215 "/>
<text text-anchor="middle" x="309.5" y="-199.8" font-family="Times,serif" font-size="14.00">input:</text>
<polyline fill="none" stroke="black" points="281.5,-192 337.5,-192 "/>
<text text-anchor="middle" x="309.5" y="-176.8" font-family="Times,serif" font-size="14.00">output:</text>
<polyline fill="none" stroke="black" points="337.5,-169 337.5,-215 "/>
<text text-anchor="middle" x="392.5" y="-199.8" font-family="Times,serif" font-size="14.00">(None, 149, 21)</text>
<polyline fill="none" stroke="black" points="337.5,-192 447.5,-192 "/>
<text text-anchor="middle" x="392.5" y="-176.8" font-family="Times,serif" font-size="14.00">(None, 149, 298)</text>
</g>
<!-- 140486067006320&#45;&gt;140486183341192 -->
<g id="edge1" class="edge"><title>140486067006320&#45;&gt;140486183341192</title>
<path fill="none" stroke="black" d="M227,-252.593C227,-244.118 227,-234.297 227,-225.104"/>
<polygon fill="black" stroke="black" points="230.5,-225.096 227,-215.096 223.5,-225.096 230.5,-225.096"/>
</g>
<!-- 140486167156552 -->
<g id="node3" class="node"><title>140486167156552</title>
<polygon fill="none" stroke="black" points="-0.5,-85 -0.5,-131 454.5,-131 454.5,-85 -0.5,-85"/>
<text text-anchor="middle" x="144" y="-104.3" font-family="Times,serif" font-size="14.00">bidirectional_10(lstm_10): Bidirectional(LSTM)</text>
<polyline fill="none" stroke="black" points="288.5,-85 288.5,-131 "/>
<text text-anchor="middle" x="316.5" y="-115.8" font-family="Times,serif" font-size="14.00">input:</text>
<polyline fill="none" stroke="black" points="288.5,-108 344.5,-108 "/>
<text text-anchor="middle" x="316.5" y="-92.8" font-family="Times,serif" font-size="14.00">output:</text>
<polyline fill="none" stroke="black" points="344.5,-85 344.5,-131 "/>
<text text-anchor="middle" x="399.5" y="-115.8" font-family="Times,serif" font-size="14.00">(None, 149, 298)</text>
<polyline fill="none" stroke="black" points="344.5,-108 454.5,-108 "/>
<text text-anchor="middle" x="399.5" y="-92.8" font-family="Times,serif" font-size="14.00">(None, 298)</text>
</g>
<!-- 140486183341192&#45;&gt;140486167156552 -->
<g id="edge2" class="edge"><title>140486183341192&#45;&gt;140486167156552</title>
<path fill="none" stroke="black" d="M227,-168.593C227,-160.118 227,-150.297 227,-141.104"/>
<polygon fill="black" stroke="black" points="230.5,-141.096 227,-131.096 223.5,-141.096 230.5,-141.096"/>
</g>
<!-- 140486183489944 -->
<g id="node4" class="node"><title>140486183489944</title>
<polygon fill="none" stroke="black" points="106.5,-1 106.5,-47 347.5,-47 347.5,-1 106.5,-1"/>
<text text-anchor="middle" x="157.5" y="-20.3" font-family="Times,serif" font-size="14.00">dense_9: Dense</text>
<polyline fill="none" stroke="black" points="208.5,-1 208.5,-47 "/>
<text text-anchor="middle" x="236.5" y="-31.8" font-family="Times,serif" font-size="14.00">input:</text>
<polyline fill="none" stroke="black" points="208.5,-24 264.5,-24 "/>
<text text-anchor="middle" x="236.5" y="-8.8" font-family="Times,serif" font-size="14.00">output:</text>
<polyline fill="none" stroke="black" points="264.5,-1 264.5,-47 "/>
<text text-anchor="middle" x="306" y="-31.8" font-family="Times,serif" font-size="14.00">(None, 298)</text>
<polyline fill="none" stroke="black" points="264.5,-24 347.5,-24 "/>
<text text-anchor="middle" x="306" y="-8.8" font-family="Times,serif" font-size="14.00">(None, 10)</text>
</g>
<!-- 140486167156552&#45;&gt;140486183489944 -->
<g id="edge3" class="edge"><title>140486167156552&#45;&gt;140486183489944</title>
<path fill="none" stroke="black" d="M227,-84.5931C227,-76.1177 227,-66.2974 227,-57.104"/>
<polygon fill="black" stroke="black" points="230.5,-57.0958 227,-47.0959 223.5,-57.0959 230.5,-57.0958"/>
</g>
</g>
</svg>
