<?xml version="1.0" encoding="UTF-8" standalone="no"?>
<!DOCTYPE svg PUBLIC "-//W3C//DTD SVG 1.1//EN"
 "http://www.w3.org/Graphics/SVG/1.1/DTD/svg11.dtd">
<!-- Generated by graphviz version 2.36.0 (20140111.2315)
 -->
<!-- Title: G Pages: 1 -->
<svg width="448pt" height="308pt"
 viewBox="0.00 0.00 448.00 308.00" xmlns="http://www.w3.org/2000/svg" xmlns:xlink="http://www.w3.org/1999/xlink">
<g id="graph0" class="graph" transform="scale(1 1) rotate(0) translate(4 304)">
<title>G</title>
<polygon fill="white" stroke="none" points="-4,4 -4,-304 444,-304 444,4 -4,4"/>
<!-- 140259665558160 -->
<g id="node1" class="node"><title>140259665558160</title>
<polygon fill="none" stroke="black" points="77,-253 77,-299 363,-299 363,-253 77,-253"/>
<text text-anchor="middle" x="140.5" y="-272.3" font-family="Times,serif" font-size="14.00">input_1: InputLayer</text>
<polyline fill="none" stroke="black" points="204,-253 204,-299 "/>
<text text-anchor="middle" x="232" y="-283.8" font-family="Times,serif" font-size="14.00">input:</text>
<polyline fill="none" stroke="black" points="204,-276 260,-276 "/>
<text text-anchor="middle" x="232" y="-260.8" font-family="Times,serif" font-size="14.00">output:</text>
<polyline fill="none" stroke="black" points="260,-253 260,-299 "/>
<text text-anchor="middle" x="311.5" y="-283.8" font-family="Times,serif" font-size="14.00">(None, 149, 21)</text>
<polyline fill="none" stroke="black" points="260,-276 363,-276 "/>
<text text-anchor="middle" x="311.5" y="-260.8" font-family="Times,serif" font-size="14.00">(None, 149, 21)</text>
</g>
<!-- 140259667263560 -->
<g id="node2" class="node"><title>140259667263560</title>
<polygon fill="none" stroke="black" points="-0.5,-169 -0.5,-215 440.5,-215 440.5,-169 -0.5,-169"/>
<text text-anchor="middle" x="137" y="-188.3" font-family="Times,serif" font-size="14.00">bidirectional_1(lstm_1): Bidirectional(LSTM)</text>
<polyline fill="none" stroke="black" points="274.5,-169 274.5,-215 "/>
<text text-anchor="middle" x="302.5" y="-199.8" font-family="Times,serif" font-size="14.00">input:</text>
<polyline fill="none" stroke="black" points="274.5,-192 330.5,-192 "/>
<text text-anchor="middle" x="302.5" y="-176.8" font-family="Times,serif" font-size="14.00">output:</text>
<polyline fill="none" stroke="black" points="330.5,-169 330.5,-215 "/>
<text text-anchor="middle" x="385.5" y="-199.8" font-family="Times,serif" font-size="14.00">(None, 149, 21)</text>
<polyline fill="none" stroke="black" points="330.5,-192 440.5,-192 "/>
<text text-anchor="middle" x="385.5" y="-176.8" font-family="Times,serif" font-size="14.00">(None, 149, 298)</text>
</g>
<!-- 140259665558160&#45;&gt;140259667263560 -->
<g id="edge1" class="edge"><title>140259665558160&#45;&gt;140259667263560</title>
<path fill="none" stroke="black" d="M220,-252.593C220,-244.118 220,-234.297 220,-225.104"/>
<polygon fill="black" stroke="black" points="223.5,-225.096 220,-215.096 216.5,-225.096 223.5,-225.096"/>
</g>
<!-- 140259539039512 -->
<g id="node3" class="node"><title>140259539039512</title>
<polygon fill="none" stroke="black" points="-0.5,-85 -0.5,-131 440.5,-131 440.5,-85 -0.5,-85"/>
<text text-anchor="middle" x="137" y="-104.3" font-family="Times,serif" font-size="14.00">bidirectional_2(lstm_2): Bidirectional(LSTM)</text>
<polyline fill="none" stroke="black" points="274.5,-85 274.5,-131 "/>
<text text-anchor="middle" x="302.5" y="-115.8" font-family="Times,serif" font-size="14.00">input:</text>
<polyline fill="none" stroke="black" points="274.5,-108 330.5,-108 "/>
<text text-anchor="middle" x="302.5" y="-92.8" font-family="Times,serif" font-size="14.00">output:</text>
<polyline fill="none" stroke="black" points="330.5,-85 330.5,-131 "/>
<text text-anchor="middle" x="385.5" y="-115.8" font-family="Times,serif" font-size="14.00">(None, 149, 298)</text>
<polyline fill="none" stroke="black" points="330.5,-108 440.5,-108 "/>
<text text-anchor="middle" x="385.5" y="-92.8" font-family="Times,serif" font-size="14.00">(None, 298)</text>
</g>
<!-- 140259667263560&#45;&gt;140259539039512 -->
<g id="edge2" class="edge"><title>140259667263560&#45;&gt;140259539039512</title>
<path fill="none" stroke="black" d="M220,-168.593C220,-160.118 220,-150.297 220,-141.104"/>
<polygon fill="black" stroke="black" points="223.5,-141.096 220,-131.096 216.5,-141.096 223.5,-141.096"/>
</g>
<!-- 140259667264960 -->
<g id="node4" class="node"><title>140259667264960</title>
<polygon fill="none" stroke="black" points="99.5,-1 99.5,-47 340.5,-47 340.5,-1 99.5,-1"/>
<text text-anchor="middle" x="150.5" y="-20.3" font-family="Times,serif" font-size="14.00">dense_1: Dense</text>
<polyline fill="none" stroke="black" points="201.5,-1 201.5,-47 "/>
<text text-anchor="middle" x="229.5" y="-31.8" font-family="Times,serif" font-size="14.00">input:</text>
<polyline fill="none" stroke="black" points="201.5,-24 257.5,-24 "/>
<text text-anchor="middle" x="229.5" y="-8.8" font-family="Times,serif" font-size="14.00">output:</text>
<polyline fill="none" stroke="black" points="257.5,-1 257.5,-47 "/>
<text text-anchor="middle" x="299" y="-31.8" font-family="Times,serif" font-size="14.00">(None, 298)</text>
<polyline fill="none" stroke="black" points="257.5,-24 340.5,-24 "/>
<text text-anchor="middle" x="299" y="-8.8" font-family="Times,serif" font-size="14.00">(None, 10)</text>
</g>
<!-- 140259539039512&#45;&gt;140259667264960 -->
<g id="edge3" class="edge"><title>140259539039512&#45;&gt;140259667264960</title>
<path fill="none" stroke="black" d="M220,-84.5931C220,-76.1177 220,-66.2974 220,-57.104"/>
<polygon fill="black" stroke="black" points="223.5,-57.0958 220,-47.0959 216.5,-57.0959 223.5,-57.0958"/>
</g>
</g>
</svg>
