<?xml version="1.0" encoding="UTF-8" standalone="no"?>
<!DOCTYPE svg PUBLIC "-//W3C//DTD SVG 1.1//EN"
 "http://www.w3.org/Graphics/SVG/1.1/DTD/svg11.dtd">
<!-- Generated by graphviz version 2.36.0 (20140111.2315)
 -->
<!-- Title: G Pages: 1 -->
<svg width="507pt" height="812pt"
 viewBox="0.00 0.00 507.00 812.00" xmlns="http://www.w3.org/2000/svg" xmlns:xlink="http://www.w3.org/1999/xlink">
<g id="graph0" class="graph" transform="scale(1 1) rotate(0) translate(4 808)">
<title>G</title>
<polygon fill="white" stroke="none" points="-4,4 -4,-808 503,-808 503,4 -4,4"/>
<!-- 140259665558160 -->
<g id="node1" class="node"><title>140259665558160</title>
<polygon fill="none" stroke="black" points="106,-757 106,-803 392,-803 392,-757 106,-757"/>
<text text-anchor="middle" x="169.5" y="-776.3" font-family="Times,serif" font-size="14.00">input_1: InputLayer</text>
<polyline fill="none" stroke="black" points="233,-757 233,-803 "/>
<text text-anchor="middle" x="261" y="-787.8" font-family="Times,serif" font-size="14.00">input:</text>
<polyline fill="none" stroke="black" points="233,-780 289,-780 "/>
<text text-anchor="middle" x="261" y="-764.8" font-family="Times,serif" font-size="14.00">output:</text>
<polyline fill="none" stroke="black" points="289,-757 289,-803 "/>
<text text-anchor="middle" x="340.5" y="-787.8" font-family="Times,serif" font-size="14.00">(None, 149, 21)</text>
<polyline fill="none" stroke="black" points="289,-780 392,-780 "/>
<text text-anchor="middle" x="340.5" y="-764.8" font-family="Times,serif" font-size="14.00">(None, 149, 21)</text>
</g>
<!-- 140259667263560 -->
<g id="node2" class="node"><title>140259667263560</title>
<polygon fill="none" stroke="black" points="28.5,-673 28.5,-719 469.5,-719 469.5,-673 28.5,-673"/>
<text text-anchor="middle" x="166" y="-692.3" font-family="Times,serif" font-size="14.00">bidirectional_1(lstm_1): Bidirectional(LSTM)</text>
<polyline fill="none" stroke="black" points="303.5,-673 303.5,-719 "/>
<text text-anchor="middle" x="331.5" y="-703.8" font-family="Times,serif" font-size="14.00">input:</text>
<polyline fill="none" stroke="black" points="303.5,-696 359.5,-696 "/>
<text text-anchor="middle" x="331.5" y="-680.8" font-family="Times,serif" font-size="14.00">output:</text>
<polyline fill="none" stroke="black" points="359.5,-673 359.5,-719 "/>
<text text-anchor="middle" x="414.5" y="-703.8" font-family="Times,serif" font-size="14.00">(None, 149, 21)</text>
<polyline fill="none" stroke="black" points="359.5,-696 469.5,-696 "/>
<text text-anchor="middle" x="414.5" y="-680.8" font-family="Times,serif" font-size="14.00">(None, 149, 298)</text>
</g>
<!-- 140259665558160&#45;&gt;140259667263560 -->
<g id="edge1" class="edge"><title>140259665558160&#45;&gt;140259667263560</title>
<path fill="none" stroke="black" d="M249,-756.593C249,-748.118 249,-738.297 249,-729.104"/>
<polygon fill="black" stroke="black" points="252.5,-729.096 249,-719.096 245.5,-729.096 252.5,-729.096"/>
</g>
<!-- 140259539039512 -->
<g id="node3" class="node"><title>140259539039512</title>
<polygon fill="none" stroke="black" points="28.5,-589 28.5,-635 469.5,-635 469.5,-589 28.5,-589"/>
<text text-anchor="middle" x="166" y="-608.3" font-family="Times,serif" font-size="14.00">bidirectional_2(lstm_2): Bidirectional(LSTM)</text>
<polyline fill="none" stroke="black" points="303.5,-589 303.5,-635 "/>
<text text-anchor="middle" x="331.5" y="-619.8" font-family="Times,serif" font-size="14.00">input:</text>
<polyline fill="none" stroke="black" points="303.5,-612 359.5,-612 "/>
<text text-anchor="middle" x="331.5" y="-596.8" font-family="Times,serif" font-size="14.00">output:</text>
<polyline fill="none" stroke="black" points="359.5,-589 359.5,-635 "/>
<text text-anchor="middle" x="414.5" y="-619.8" font-family="Times,serif" font-size="14.00">(None, 149, 298)</text>
<polyline fill="none" stroke="black" points="359.5,-612 469.5,-612 "/>
<text text-anchor="middle" x="414.5" y="-596.8" font-family="Times,serif" font-size="14.00">(None, 298)</text>
</g>
<!-- 140259667263560&#45;&gt;140259539039512 -->
<g id="edge2" class="edge"><title>140259667263560&#45;&gt;140259539039512</title>
<path fill="none" stroke="black" d="M249,-672.593C249,-664.118 249,-654.297 249,-645.104"/>
<polygon fill="black" stroke="black" points="252.5,-645.096 249,-635.096 245.5,-645.096 252.5,-645.096"/>
</g>
<!-- 140259667264960 -->
<g id="node4" class="node"><title>140259667264960</title>
<polygon fill="none" stroke="black" points="-0.5,-505 -0.5,-551 240.5,-551 240.5,-505 -0.5,-505"/>
<text text-anchor="middle" x="50.5" y="-524.3" font-family="Times,serif" font-size="14.00">dense_1: Dense</text>
<polyline fill="none" stroke="black" points="101.5,-505 101.5,-551 "/>
<text text-anchor="middle" x="129.5" y="-535.8" font-family="Times,serif" font-size="14.00">input:</text>
<polyline fill="none" stroke="black" points="101.5,-528 157.5,-528 "/>
<text text-anchor="middle" x="129.5" y="-512.8" font-family="Times,serif" font-size="14.00">output:</text>
<polyline fill="none" stroke="black" points="157.5,-505 157.5,-551 "/>
<text text-anchor="middle" x="199" y="-535.8" font-family="Times,serif" font-size="14.00">(None, 298)</text>
<polyline fill="none" stroke="black" points="157.5,-528 240.5,-528 "/>
<text text-anchor="middle" x="199" y="-512.8" font-family="Times,serif" font-size="14.00">(None, 10)</text>
</g>
<!-- 140259539039512&#45;&gt;140259667264960 -->
<g id="edge3" class="edge"><title>140259539039512&#45;&gt;140259667264960</title>
<path fill="none" stroke="black" d="M214.091,-588.81C198.603,-578.965 180.209,-567.273 163.811,-556.849"/>
<polygon fill="black" stroke="black" points="165.254,-553.619 154.937,-551.208 161.499,-559.526 165.254,-553.619"/>
</g>
<!-- 140259539183712 -->
<g id="node5" class="node"><title>140259539183712</title>
<polygon fill="none" stroke="black" points="258.5,-505 258.5,-551 499.5,-551 499.5,-505 258.5,-505"/>
<text text-anchor="middle" x="309.5" y="-524.3" font-family="Times,serif" font-size="14.00">dense_2: Dense</text>
<polyline fill="none" stroke="black" points="360.5,-505 360.5,-551 "/>
<text text-anchor="middle" x="388.5" y="-535.8" font-family="Times,serif" font-size="14.00">input:</text>
<polyline fill="none" stroke="black" points="360.5,-528 416.5,-528 "/>
<text text-anchor="middle" x="388.5" y="-512.8" font-family="Times,serif" font-size="14.00">output:</text>
<polyline fill="none" stroke="black" points="416.5,-505 416.5,-551 "/>
<text text-anchor="middle" x="458" y="-535.8" font-family="Times,serif" font-size="14.00">(None, 298)</text>
<polyline fill="none" stroke="black" points="416.5,-528 499.5,-528 "/>
<text text-anchor="middle" x="458" y="-512.8" font-family="Times,serif" font-size="14.00">(None, 10)</text>
</g>
<!-- 140259539039512&#45;&gt;140259539183712 -->
<g id="edge4" class="edge"><title>140259539039512&#45;&gt;140259539183712</title>
<path fill="none" stroke="black" d="M284.18,-588.81C299.932,-578.874 318.668,-567.056 335.308,-556.56"/>
<polygon fill="black" stroke="black" points="337.201,-559.503 343.792,-551.208 333.467,-553.583 337.201,-559.503"/>
</g>
<!-- 140259529377272 -->
<g id="node6" class="node"><title>140259529377272</title>
<polygon fill="none" stroke="black" points="84,-421 84,-467 414,-467 414,-421 84,-421"/>
<text text-anchor="middle" x="145" y="-440.3" font-family="Times,serif" font-size="14.00">lambda_1: Lambda</text>
<polyline fill="none" stroke="black" points="206,-421 206,-467 "/>
<text text-anchor="middle" x="234" y="-451.8" font-family="Times,serif" font-size="14.00">input:</text>
<polyline fill="none" stroke="black" points="206,-444 262,-444 "/>
<text text-anchor="middle" x="234" y="-428.8" font-family="Times,serif" font-size="14.00">output:</text>
<polyline fill="none" stroke="black" points="262,-421 262,-467 "/>
<text text-anchor="middle" x="338" y="-451.8" font-family="Times,serif" font-size="14.00">[(None, 10), (None, 10)]</text>
<polyline fill="none" stroke="black" points="262,-444 414,-444 "/>
<text text-anchor="middle" x="338" y="-428.8" font-family="Times,serif" font-size="14.00">(None, 10)</text>
</g>
<!-- 140259667264960&#45;&gt;140259529377272 -->
<g id="edge5" class="edge"><title>140259667264960&#45;&gt;140259529377272</title>
<path fill="none" stroke="black" d="M154.909,-504.81C170.397,-494.965 188.791,-483.273 205.189,-472.849"/>
<polygon fill="black" stroke="black" points="207.501,-475.526 214.063,-467.208 203.746,-469.619 207.501,-475.526"/>
</g>
<!-- 140259539183712&#45;&gt;140259529377272 -->
<g id="edge6" class="edge"><title>140259539183712&#45;&gt;140259529377272</title>
<path fill="none" stroke="black" d="M343.82,-504.81C328.068,-494.874 309.332,-483.056 292.692,-472.56"/>
<polygon fill="black" stroke="black" points="294.533,-469.583 284.208,-467.208 290.799,-475.503 294.533,-469.583"/>
</g>
<!-- 140259640386504 -->
<g id="node7" class="node"><title>140259640386504</title>
<polygon fill="none" stroke="black" points="75,-337 75,-383 423,-383 423,-337 75,-337"/>
<text text-anchor="middle" x="169.5" y="-356.3" font-family="Times,serif" font-size="14.00">repeat_vector_1: RepeatVector</text>
<polyline fill="none" stroke="black" points="264,-337 264,-383 "/>
<text text-anchor="middle" x="292" y="-367.8" font-family="Times,serif" font-size="14.00">input:</text>
<polyline fill="none" stroke="black" points="264,-360 320,-360 "/>
<text text-anchor="middle" x="292" y="-344.8" font-family="Times,serif" font-size="14.00">output:</text>
<polyline fill="none" stroke="black" points="320,-337 320,-383 "/>
<text text-anchor="middle" x="371.5" y="-367.8" font-family="Times,serif" font-size="14.00">(None, 10)</text>
<polyline fill="none" stroke="black" points="320,-360 423,-360 "/>
<text text-anchor="middle" x="371.5" y="-344.8" font-family="Times,serif" font-size="14.00">(None, 149, 10)</text>
</g>
<!-- 140259529377272&#45;&gt;140259640386504 -->
<g id="edge7" class="edge"><title>140259529377272&#45;&gt;140259640386504</title>
<path fill="none" stroke="black" d="M249,-420.593C249,-412.118 249,-402.297 249,-393.104"/>
<polygon fill="black" stroke="black" points="252.5,-393.096 249,-383.096 245.5,-393.096 252.5,-393.096"/>
</g>
<!-- 140259640314568 -->
<g id="node8" class="node"><title>140259640314568</title>
<polygon fill="none" stroke="black" points="28.5,-253 28.5,-299 469.5,-299 469.5,-253 28.5,-253"/>
<text text-anchor="middle" x="166" y="-272.3" font-family="Times,serif" font-size="14.00">bidirectional_3(lstm_3): Bidirectional(LSTM)</text>
<polyline fill="none" stroke="black" points="303.5,-253 303.5,-299 "/>
<text text-anchor="middle" x="331.5" y="-283.8" font-family="Times,serif" font-size="14.00">input:</text>
<polyline fill="none" stroke="black" points="303.5,-276 359.5,-276 "/>
<text text-anchor="middle" x="331.5" y="-260.8" font-family="Times,serif" font-size="14.00">output:</text>
<polyline fill="none" stroke="black" points="359.5,-253 359.5,-299 "/>
<text text-anchor="middle" x="414.5" y="-283.8" font-family="Times,serif" font-size="14.00">(None, 149, 10)</text>
<polyline fill="none" stroke="black" points="359.5,-276 469.5,-276 "/>
<text text-anchor="middle" x="414.5" y="-260.8" font-family="Times,serif" font-size="14.00">(None, 149, 298)</text>
</g>
<!-- 140259640386504&#45;&gt;140259640314568 -->
<g id="edge8" class="edge"><title>140259640386504&#45;&gt;140259640314568</title>
<path fill="none" stroke="black" d="M249,-336.593C249,-328.118 249,-318.297 249,-309.104"/>
<polygon fill="black" stroke="black" points="252.5,-309.096 249,-299.096 245.5,-309.096 252.5,-309.096"/>
</g>
<!-- 140259640380216 -->
<g id="node9" class="node"><title>140259640380216</title>
<polygon fill="none" stroke="black" points="28.5,-169 28.5,-215 469.5,-215 469.5,-169 28.5,-169"/>
<text text-anchor="middle" x="166" y="-188.3" font-family="Times,serif" font-size="14.00">bidirectional_4(lstm_4): Bidirectional(LSTM)</text>
<polyline fill="none" stroke="black" points="303.5,-169 303.5,-215 "/>
<text text-anchor="middle" x="331.5" y="-199.8" font-family="Times,serif" font-size="14.00">input:</text>
<polyline fill="none" stroke="black" points="303.5,-192 359.5,-192 "/>
<text text-anchor="middle" x="331.5" y="-176.8" font-family="Times,serif" font-size="14.00">output:</text>
<polyline fill="none" stroke="black" points="359.5,-169 359.5,-215 "/>
<text text-anchor="middle" x="414.5" y="-199.8" font-family="Times,serif" font-size="14.00">(None, 149, 298)</text>
<polyline fill="none" stroke="black" points="359.5,-192 469.5,-192 "/>
<text text-anchor="middle" x="414.5" y="-176.8" font-family="Times,serif" font-size="14.00">(None, 298)</text>
</g>
<!-- 140259640314568&#45;&gt;140259640380216 -->
<g id="edge9" class="edge"><title>140259640314568&#45;&gt;140259640380216</title>
<path fill="none" stroke="black" d="M249,-252.593C249,-244.118 249,-234.297 249,-225.104"/>
<polygon fill="black" stroke="black" points="252.5,-225.096 249,-215.096 245.5,-225.096 252.5,-225.096"/>
</g>
<!-- 140259666698312 -->
<g id="node10" class="node"><title>140259666698312</title>
<polygon fill="none" stroke="black" points="125,-85 125,-131 373,-131 373,-85 125,-85"/>
<text text-anchor="middle" x="176" y="-104.3" font-family="Times,serif" font-size="14.00">dense_3: Dense</text>
<polyline fill="none" stroke="black" points="227,-85 227,-131 "/>
<text text-anchor="middle" x="255" y="-115.8" font-family="Times,serif" font-size="14.00">input:</text>
<polyline fill="none" stroke="black" points="227,-108 283,-108 "/>
<text text-anchor="middle" x="255" y="-92.8" font-family="Times,serif" font-size="14.00">output:</text>
<polyline fill="none" stroke="black" points="283,-85 283,-131 "/>
<text text-anchor="middle" x="328" y="-115.8" font-family="Times,serif" font-size="14.00">(None, 298)</text>
<polyline fill="none" stroke="black" points="283,-108 373,-108 "/>
<text text-anchor="middle" x="328" y="-92.8" font-family="Times,serif" font-size="14.00">(None, 3129)</text>
</g>
<!-- 140259640380216&#45;&gt;140259666698312 -->
<g id="edge10" class="edge"><title>140259640380216&#45;&gt;140259666698312</title>
<path fill="none" stroke="black" d="M249,-168.593C249,-160.118 249,-150.297 249,-141.104"/>
<polygon fill="black" stroke="black" points="252.5,-141.096 249,-131.096 245.5,-141.096 252.5,-141.096"/>
</g>
<!-- 140259666699600 -->
<g id="node11" class="node"><title>140259666699600</title>
<polygon fill="none" stroke="black" points="107,-1 107,-47 391,-47 391,-1 107,-1"/>
<text text-anchor="middle" x="169.5" y="-20.3" font-family="Times,serif" font-size="14.00">reshape_1: Reshape</text>
<polyline fill="none" stroke="black" points="232,-1 232,-47 "/>
<text text-anchor="middle" x="260" y="-31.8" font-family="Times,serif" font-size="14.00">input:</text>
<polyline fill="none" stroke="black" points="232,-24 288,-24 "/>
<text text-anchor="middle" x="260" y="-8.8" font-family="Times,serif" font-size="14.00">output:</text>
<polyline fill="none" stroke="black" points="288,-1 288,-47 "/>
<text text-anchor="middle" x="339.5" y="-31.8" font-family="Times,serif" font-size="14.00">(None, 3129)</text>
<polyline fill="none" stroke="black" points="288,-24 391,-24 "/>
<text text-anchor="middle" x="339.5" y="-8.8" font-family="Times,serif" font-size="14.00">(None, 149, 21)</text>
</g>
<!-- 140259666698312&#45;&gt;140259666699600 -->
<g id="edge11" class="edge"><title>140259666698312&#45;&gt;140259666699600</title>
<path fill="none" stroke="black" d="M249,-84.5931C249,-76.1177 249,-66.2974 249,-57.104"/>
<polygon fill="black" stroke="black" points="252.5,-57.0958 249,-47.0959 245.5,-57.0959 252.5,-57.0958"/>
</g>
</g>
</svg>
