<?xml version="1.0" encoding="UTF-8" standalone="no"?>
<!DOCTYPE svg PUBLIC "-//W3C//DTD SVG 1.1//EN"
 "http://www.w3.org/Graphics/SVG/1.1/DTD/svg11.dtd">
<!-- Generated by graphviz version 2.36.0 (20140111.2315)
 -->
<!-- Title: G Pages: 1 -->
<svg width="515pt" height="812pt"
 viewBox="0.00 0.00 515.00 812.00" xmlns="http://www.w3.org/2000/svg" xmlns:xlink="http://www.w3.org/1999/xlink">
<g id="graph0" class="graph" transform="scale(1 1) rotate(0) translate(4 808)">
<title>G</title>
<polygon fill="white" stroke="none" points="-4,4 -4,-808 511,-808 511,4 -4,4"/>
<!-- 140486067006320 -->
<g id="node1" class="node"><title>140486067006320</title>
<polygon fill="none" stroke="black" points="108,-757 108,-803 394,-803 394,-757 108,-757"/>
<text text-anchor="middle" x="171.5" y="-776.3" font-family="Times,serif" font-size="14.00">input_5: InputLayer</text>
<polyline fill="none" stroke="black" points="235,-757 235,-803 "/>
<text text-anchor="middle" x="263" y="-787.8" font-family="Times,serif" font-size="14.00">input:</text>
<polyline fill="none" stroke="black" points="235,-780 291,-780 "/>
<text text-anchor="middle" x="263" y="-764.8" font-family="Times,serif" font-size="14.00">output:</text>
<polyline fill="none" stroke="black" points="291,-757 291,-803 "/>
<text text-anchor="middle" x="342.5" y="-787.8" font-family="Times,serif" font-size="14.00">(None, 149, 21)</text>
<polyline fill="none" stroke="black" points="291,-780 394,-780 "/>
<text text-anchor="middle" x="342.5" y="-764.8" font-family="Times,serif" font-size="14.00">(None, 149, 21)</text>
</g>
<!-- 140486183341192 -->
<g id="node2" class="node"><title>140486183341192</title>
<polygon fill="none" stroke="black" points="30.5,-673 30.5,-719 471.5,-719 471.5,-673 30.5,-673"/>
<text text-anchor="middle" x="168" y="-692.3" font-family="Times,serif" font-size="14.00">bidirectional_9(lstm_9): Bidirectional(LSTM)</text>
<polyline fill="none" stroke="black" points="305.5,-673 305.5,-719 "/>
<text text-anchor="middle" x="333.5" y="-703.8" font-family="Times,serif" font-size="14.00">input:</text>
<polyline fill="none" stroke="black" points="305.5,-696 361.5,-696 "/>
<text text-anchor="middle" x="333.5" y="-680.8" font-family="Times,serif" font-size="14.00">output:</text>
<polyline fill="none" stroke="black" points="361.5,-673 361.5,-719 "/>
<text text-anchor="middle" x="416.5" y="-703.8" font-family="Times,serif" font-size="14.00">(None, 149, 21)</text>
<polyline fill="none" stroke="black" points="361.5,-696 471.5,-696 "/>
<text text-anchor="middle" x="416.5" y="-680.8" font-family="Times,serif" font-size="14.00">(None, 149, 298)</text>
</g>
<!-- 140486067006320&#45;&gt;140486183341192 -->
<g id="edge1" class="edge"><title>140486067006320&#45;&gt;140486183341192</title>
<path fill="none" stroke="black" d="M251,-756.593C251,-748.118 251,-738.297 251,-729.104"/>
<polygon fill="black" stroke="black" points="254.5,-729.096 251,-719.096 247.5,-729.096 254.5,-729.096"/>
</g>
<!-- 140486167156552 -->
<g id="node3" class="node"><title>140486167156552</title>
<polygon fill="none" stroke="black" points="23.5,-589 23.5,-635 478.5,-635 478.5,-589 23.5,-589"/>
<text text-anchor="middle" x="168" y="-608.3" font-family="Times,serif" font-size="14.00">bidirectional_10(lstm_10): Bidirectional(LSTM)</text>
<polyline fill="none" stroke="black" points="312.5,-589 312.5,-635 "/>
<text text-anchor="middle" x="340.5" y="-619.8" font-family="Times,serif" font-size="14.00">input:</text>
<polyline fill="none" stroke="black" points="312.5,-612 368.5,-612 "/>
<text text-anchor="middle" x="340.5" y="-596.8" font-family="Times,serif" font-size="14.00">output:</text>
<polyline fill="none" stroke="black" points="368.5,-589 368.5,-635 "/>
<text text-anchor="middle" x="423.5" y="-619.8" font-family="Times,serif" font-size="14.00">(None, 149, 298)</text>
<polyline fill="none" stroke="black" points="368.5,-612 478.5,-612 "/>
<text text-anchor="middle" x="423.5" y="-596.8" font-family="Times,serif" font-size="14.00">(None, 298)</text>
</g>
<!-- 140486183341192&#45;&gt;140486167156552 -->
<g id="edge2" class="edge"><title>140486183341192&#45;&gt;140486167156552</title>
<path fill="none" stroke="black" d="M251,-672.593C251,-664.118 251,-654.297 251,-645.104"/>
<polygon fill="black" stroke="black" points="254.5,-645.096 251,-635.096 247.5,-645.096 254.5,-645.096"/>
</g>
<!-- 140486183489944 -->
<g id="node4" class="node"><title>140486183489944</title>
<polygon fill="none" stroke="black" points="-0.5,-505 -0.5,-551 240.5,-551 240.5,-505 -0.5,-505"/>
<text text-anchor="middle" x="50.5" y="-524.3" font-family="Times,serif" font-size="14.00">dense_9: Dense</text>
<polyline fill="none" stroke="black" points="101.5,-505 101.5,-551 "/>
<text text-anchor="middle" x="129.5" y="-535.8" font-family="Times,serif" font-size="14.00">input:</text>
<polyline fill="none" stroke="black" points="101.5,-528 157.5,-528 "/>
<text text-anchor="middle" x="129.5" y="-512.8" font-family="Times,serif" font-size="14.00">output:</text>
<polyline fill="none" stroke="black" points="157.5,-505 157.5,-551 "/>
<text text-anchor="middle" x="199" y="-535.8" font-family="Times,serif" font-size="14.00">(None, 298)</text>
<polyline fill="none" stroke="black" points="157.5,-528 240.5,-528 "/>
<text text-anchor="middle" x="199" y="-512.8" font-family="Times,serif" font-size="14.00">(None, 10)</text>
</g>
<!-- 140486167156552&#45;&gt;140486183489944 -->
<g id="edge3" class="edge"><title>140486167156552&#45;&gt;140486183489944</title>
<path fill="none" stroke="black" d="M215.55,-588.81C199.676,-578.874 180.797,-567.056 164.028,-556.56"/>
<polygon fill="black" stroke="black" points="165.812,-553.547 155.479,-551.208 162.098,-559.481 165.812,-553.547"/>
</g>
<!-- 140486167083832 -->
<g id="node5" class="node"><title>140486167083832</title>
<polygon fill="none" stroke="black" points="259,-505 259,-551 507,-551 507,-505 259,-505"/>
<text text-anchor="middle" x="313.5" y="-524.3" font-family="Times,serif" font-size="14.00">dense_10: Dense</text>
<polyline fill="none" stroke="black" points="368,-505 368,-551 "/>
<text text-anchor="middle" x="396" y="-535.8" font-family="Times,serif" font-size="14.00">input:</text>
<polyline fill="none" stroke="black" points="368,-528 424,-528 "/>
<text text-anchor="middle" x="396" y="-512.8" font-family="Times,serif" font-size="14.00">output:</text>
<polyline fill="none" stroke="black" points="424,-505 424,-551 "/>
<text text-anchor="middle" x="465.5" y="-535.8" font-family="Times,serif" font-size="14.00">(None, 298)</text>
<polyline fill="none" stroke="black" points="424,-528 507,-528 "/>
<text text-anchor="middle" x="465.5" y="-512.8" font-family="Times,serif" font-size="14.00">(None, 10)</text>
</g>
<!-- 140486167156552&#45;&gt;140486167083832 -->
<g id="edge4" class="edge"><title>140486167156552&#45;&gt;140486167083832</title>
<path fill="none" stroke="black" d="M286.721,-588.81C302.716,-578.874 321.739,-567.056 338.636,-556.56"/>
<polygon fill="black" stroke="black" points="340.603,-559.458 347.25,-551.208 336.909,-553.512 340.603,-559.458"/>
</g>
<!-- 140486028725496 -->
<g id="node6" class="node"><title>140486028725496</title>
<polygon fill="none" stroke="black" points="86,-421 86,-467 416,-467 416,-421 86,-421"/>
<text text-anchor="middle" x="147" y="-440.3" font-family="Times,serif" font-size="14.00">lambda_5: Lambda</text>
<polyline fill="none" stroke="black" points="208,-421 208,-467 "/>
<text text-anchor="middle" x="236" y="-451.8" font-family="Times,serif" font-size="14.00">input:</text>
<polyline fill="none" stroke="black" points="208,-444 264,-444 "/>
<text text-anchor="middle" x="236" y="-428.8" font-family="Times,serif" font-size="14.00">output:</text>
<polyline fill="none" stroke="black" points="264,-421 264,-467 "/>
<text text-anchor="middle" x="340" y="-451.8" font-family="Times,serif" font-size="14.00">[(None, 10), (None, 10)]</text>
<polyline fill="none" stroke="black" points="264,-444 416,-444 "/>
<text text-anchor="middle" x="340" y="-428.8" font-family="Times,serif" font-size="14.00">(None, 10)</text>
</g>
<!-- 140486183489944&#45;&gt;140486028725496 -->
<g id="edge5" class="edge"><title>140486183489944&#45;&gt;140486028725496</title>
<path fill="none" stroke="black" d="M155.45,-504.81C171.324,-494.874 190.203,-483.056 206.972,-472.56"/>
<polygon fill="black" stroke="black" points="208.902,-475.481 215.521,-467.208 205.188,-469.547 208.902,-475.481"/>
</g>
<!-- 140486167083832&#45;&gt;140486028725496 -->
<g id="edge6" class="edge"><title>140486167083832&#45;&gt;140486028725496</title>
<path fill="none" stroke="black" d="M347.279,-504.81C331.284,-494.874 312.261,-483.056 295.364,-472.56"/>
<polygon fill="black" stroke="black" points="297.091,-469.512 286.75,-467.208 293.397,-475.458 297.091,-469.512"/>
</g>
<!-- 140486182642072 -->
<g id="node7" class="node"><title>140486182642072</title>
<polygon fill="none" stroke="black" points="77,-337 77,-383 425,-383 425,-337 77,-337"/>
<text text-anchor="middle" x="171.5" y="-356.3" font-family="Times,serif" font-size="14.00">repeat_vector_3: RepeatVector</text>
<polyline fill="none" stroke="black" points="266,-337 266,-383 "/>
<text text-anchor="middle" x="294" y="-367.8" font-family="Times,serif" font-size="14.00">input:</text>
<polyline fill="none" stroke="black" points="266,-360 322,-360 "/>
<text text-anchor="middle" x="294" y="-344.8" font-family="Times,serif" font-size="14.00">output:</text>
<polyline fill="none" stroke="black" points="322,-337 322,-383 "/>
<text text-anchor="middle" x="373.5" y="-367.8" font-family="Times,serif" font-size="14.00">(None, 10)</text>
<polyline fill="none" stroke="black" points="322,-360 425,-360 "/>
<text text-anchor="middle" x="373.5" y="-344.8" font-family="Times,serif" font-size="14.00">(None, 149, 10)</text>
</g>
<!-- 140486028725496&#45;&gt;140486182642072 -->
<g id="edge7" class="edge"><title>140486028725496&#45;&gt;140486182642072</title>
<path fill="none" stroke="black" d="M251,-420.593C251,-412.118 251,-402.297 251,-393.104"/>
<polygon fill="black" stroke="black" points="254.5,-393.096 251,-383.096 247.5,-393.096 254.5,-393.096"/>
</g>
<!-- 140486182633312 -->
<g id="node8" class="node"><title>140486182633312</title>
<polygon fill="none" stroke="black" points="23.5,-253 23.5,-299 478.5,-299 478.5,-253 23.5,-253"/>
<text text-anchor="middle" x="168" y="-272.3" font-family="Times,serif" font-size="14.00">bidirectional_15(lstm_15): Bidirectional(LSTM)</text>
<polyline fill="none" stroke="black" points="312.5,-253 312.5,-299 "/>
<text text-anchor="middle" x="340.5" y="-283.8" font-family="Times,serif" font-size="14.00">input:</text>
<polyline fill="none" stroke="black" points="312.5,-276 368.5,-276 "/>
<text text-anchor="middle" x="340.5" y="-260.8" font-family="Times,serif" font-size="14.00">output:</text>
<polyline fill="none" stroke="black" points="368.5,-253 368.5,-299 "/>
<text text-anchor="middle" x="423.5" y="-283.8" font-family="Times,serif" font-size="14.00">(None, 149, 10)</text>
<polyline fill="none" stroke="black" points="368.5,-276 478.5,-276 "/>
<text text-anchor="middle" x="423.5" y="-260.8" font-family="Times,serif" font-size="14.00">(None, 149, 298)</text>
</g>
<!-- 140486182642072&#45;&gt;140486182633312 -->
<g id="edge8" class="edge"><title>140486182642072&#45;&gt;140486182633312</title>
<path fill="none" stroke="black" d="M251,-336.593C251,-328.118 251,-318.297 251,-309.104"/>
<polygon fill="black" stroke="black" points="254.5,-309.096 251,-299.096 247.5,-309.096 254.5,-309.096"/>
</g>
<!-- 140486182632136 -->
<g id="node9" class="node"><title>140486182632136</title>
<polygon fill="none" stroke="black" points="23.5,-169 23.5,-215 478.5,-215 478.5,-169 23.5,-169"/>
<text text-anchor="middle" x="168" y="-188.3" font-family="Times,serif" font-size="14.00">bidirectional_16(lstm_16): Bidirectional(LSTM)</text>
<polyline fill="none" stroke="black" points="312.5,-169 312.5,-215 "/>
<text text-anchor="middle" x="340.5" y="-199.8" font-family="Times,serif" font-size="14.00">input:</text>
<polyline fill="none" stroke="black" points="312.5,-192 368.5,-192 "/>
<text text-anchor="middle" x="340.5" y="-176.8" font-family="Times,serif" font-size="14.00">output:</text>
<polyline fill="none" stroke="black" points="368.5,-169 368.5,-215 "/>
<text text-anchor="middle" x="423.5" y="-199.8" font-family="Times,serif" font-size="14.00">(None, 149, 298)</text>
<polyline fill="none" stroke="black" points="368.5,-192 478.5,-192 "/>
<text text-anchor="middle" x="423.5" y="-176.8" font-family="Times,serif" font-size="14.00">(None, 298)</text>
</g>
<!-- 140486182633312&#45;&gt;140486182632136 -->
<g id="edge9" class="edge"><title>140486182633312&#45;&gt;140486182632136</title>
<path fill="none" stroke="black" d="M251,-252.593C251,-244.118 251,-234.297 251,-225.104"/>
<polygon fill="black" stroke="black" points="254.5,-225.096 251,-215.096 247.5,-225.096 254.5,-225.096"/>
</g>
<!-- 140486182632640 -->
<g id="node10" class="node"><title>140486182632640</title>
<polygon fill="none" stroke="black" points="123.5,-85 123.5,-131 378.5,-131 378.5,-85 123.5,-85"/>
<text text-anchor="middle" x="178" y="-104.3" font-family="Times,serif" font-size="14.00">dense_13: Dense</text>
<polyline fill="none" stroke="black" points="232.5,-85 232.5,-131 "/>
<text text-anchor="middle" x="260.5" y="-115.8" font-family="Times,serif" font-size="14.00">input:</text>
<polyline fill="none" stroke="black" points="232.5,-108 288.5,-108 "/>
<text text-anchor="middle" x="260.5" y="-92.8" font-family="Times,serif" font-size="14.00">output:</text>
<polyline fill="none" stroke="black" points="288.5,-85 288.5,-131 "/>
<text text-anchor="middle" x="333.5" y="-115.8" font-family="Times,serif" font-size="14.00">(None, 298)</text>
<polyline fill="none" stroke="black" points="288.5,-108 378.5,-108 "/>
<text text-anchor="middle" x="333.5" y="-92.8" font-family="Times,serif" font-size="14.00">(None, 3129)</text>
</g>
<!-- 140486182632136&#45;&gt;140486182632640 -->
<g id="edge10" class="edge"><title>140486182632136&#45;&gt;140486182632640</title>
<path fill="none" stroke="black" d="M251,-168.593C251,-160.118 251,-150.297 251,-141.104"/>
<polygon fill="black" stroke="black" points="254.5,-141.096 251,-131.096 247.5,-141.096 254.5,-141.096"/>
</g>
<!-- 140486182631240 -->
<g id="node11" class="node"><title>140486182631240</title>
<polygon fill="none" stroke="black" points="109,-1 109,-47 393,-47 393,-1 109,-1"/>
<text text-anchor="middle" x="171.5" y="-20.3" font-family="Times,serif" font-size="14.00">reshape_2: Reshape</text>
<polyline fill="none" stroke="black" points="234,-1 234,-47 "/>
<text text-anchor="middle" x="262" y="-31.8" font-family="Times,serif" font-size="14.00">input:</text>
<polyline fill="none" stroke="black" points="234,-24 290,-24 "/>
<text text-anchor="middle" x="262" y="-8.8" font-family="Times,serif" font-size="14.00">output:</text>
<polyline fill="none" stroke="black" points="290,-1 290,-47 "/>
<text text-anchor="middle" x="341.5" y="-31.8" font-family="Times,serif" font-size="14.00">(None, 3129)</text>
<polyline fill="none" stroke="black" points="290,-24 393,-24 "/>
<text text-anchor="middle" x="341.5" y="-8.8" font-family="Times,serif" font-size="14.00">(None, 149, 21)</text>
</g>
<!-- 140486182632640&#45;&gt;140486182631240 -->
<g id="edge11" class="edge"><title>140486182632640&#45;&gt;140486182631240</title>
<path fill="none" stroke="black" d="M251,-84.5931C251,-76.1177 251,-66.2974 251,-57.104"/>
<polygon fill="black" stroke="black" points="254.5,-57.0958 251,-47.0959 247.5,-57.0959 254.5,-57.0958"/>
</g>
</g>
</svg>
